<?xml version="1.0" encoding="utf-8"?>
<!-- Generator: Adobe Illustrator 21.1.0, SVG Export Plug-In . SVG Version: 6.00 Build 0)  -->
<svg version="1.1" xmlns="http://www.w3.org/2000/svg" xmlns:xlink="http://www.w3.org/1999/xlink" x="0px" y="0px"
	 viewBox="0 0 1024 1024" style="enable-background:new 0 0 1024 1024;" xml:space="preserve">
<style type="text/css">
	.st0{fill:#FFFFFF;stroke:#FFFFFF;stroke-miterlimit:10;}
	.st1{font-family:'KozGoPr6N-Regular-83pv-RKSJ-H';}
	.st2{font-size:243.6595px;}
</style>
<g id="Layer_2">
	<path class="st0" d="M985.3,1024H38.7C17.3,1024,0,1006.7,0,985.3V38.7C0,17.3,17.3,0,38.7,0h946.6c21.4,0,38.7,17.3,38.7,38.7
		v946.6C1024,1006.7,1006.7,1024,985.3,1024z"/>
</g>
<g id="Layer_1">
	<g>
		<g>
			<path d="M689.7,567.6c-1.4,0.4-2.8,1-4.2,1.7c-0.3-1.6-1.6-3-3.3-3.1c-7.7-0.3-17.3,0.8-20,9.4c-1.9,5.9,1.7,11.4,0.8,17.3
				c-0.3,2.1-1.5,5.6,0.3,8.7c2.1,3.6,6,4.6,9.8,3.8c4-0.8,7.7-4.7,10.6-7.2c5.7-4.9,15.7-12.6,17.2-20.5
				C702.2,570.8,696.4,565.7,689.7,567.6z"/>
			<path d="M412.1,570.7c-0.1,0-0.1-0.1-0.2-0.1c-1.7-4.2-4.7-6.5-9.2-4.7c-0.2,0-0.4,0-0.5,0c0.6-0.7,1.3-1.2,1.8-2
				c2.2-3.6-2-7-5.4-5.4c-4.9,2.4-10.6,2.9-15.2,5.7c-6.8,4.1-6.6,12.1-5.5,19c0.5,2.9,3.3,4.7,6,5.3c0.9,5,4.6,9.6,9.8,8.3
				c1.3,1.5,2.7,2.9,4.2,3.7c9.6,5.8,15.2-6.2,15.8-17.7c0,0,0.1-0.1,0.2-0.1C417.4,579.8,416.3,572.7,412.1,570.7z"/>
			<path d="M754.9,406.5c-14.4-13.6-63.2-34.9-63.8-1.2c-35.9-40.8-92.6-57.5-145.1-48.7c0.6-2.2,1.3-4.4,1.8-6.6
				c4.4-21.2,1.6-39.8-5.9-56c2.5,0.4,5.3-0.6,7-2.8c7-9.1,8.1-25.1,10.5-36.1c3.4-15.8,5.6-32,3.7-48.1c-0.7-6.2-6.4-10.1-12.3-7.1
				c-23.9,12.2-49.5,19.6-74.5,28.9c-1.3,0.5-2.2,1.3-2.8,2.3c-4.3-2.1-8.7-3.8-13-5.6c0.1-7-9-10.1-15-6.3c-8-2.9-16-5.6-23.7-7.6
				c-5-1.4-8.2,2-8.7,5.9c-21.2-1-41.2,0.5-59.5,5c-26.5-13-52.7-29.9-82-35.1c-5.1-0.9-10.9,2.2-10.6,8
				c1.4,28.5,0.6,59.2,11.1,86.3c0.8,2.1,2.3,3.2,3.9,3.5c-4.6,10.4-8.3,22.1-10.6,35.4c-10.6,61.4,41.7,121.8,100.2,137.7
				c-15.5,11.4-8.1,43.8-2.9,58.4c-14,7.2-25.6,19.6-31.6,36.4c-14.8,41.2,9.7,85,51.3,97c29.9,8.6,59.4-9.7,74.6-34.8
				c24.8,6,50.2,7.7,75.7,7.8c25.4,0.2,52.8,2.8,77.9-1c6.6-1,5.5-10.5,0-12.2c-21.1-6.5-45.6-3.2-67.4-3c-27,0.3-53.8-0.2-80.6-2.8
				c12.9-31.9-0.4-64.3-30.7-80.4c-1.1-0.6-2.3-0.9-3.4-1c-0.1-0.7-0.3-1.4-0.6-2c19.2-14.2,27.5-43.9,17.5-65.7
				c14.9-4.6,29.1-11.1,42-19.6c49.5,41,149.8,28.7,164.8-40.1c7.8,5.1,15.4,10.7,22.6,17.4c8.7,8,15.5,16.5,20.9,25.3
				c-0.2,0.1-0.3,0.2-0.5,0.3c-36.3,7.1-63.7,45.1-41,80.3c0.1,0.1,0.2,0.2,0.3,0.3c-64.5,19.4-53.3,153.9,30.4,151.7
				c63.5-1.6,75.7-87.4,41.8-130.5c5.7-15.7,6.9-32.1,5-48.4c18.5-7.7,38.9-20.3,42.1-41.8C776.3,433,766.7,417.7,754.9,406.5z
				 M547.2,218.9c-0.1,12.4-2.1,24.5-4.7,36.8c-1.9,9-6,19.1-5.8,28.6c-11.7-19.2-30.3-34.6-51.1-46.7
				C506.6,233.1,527.3,227,547.2,218.9z M436.6,232.4c-3.4,4.9-7.6,9.2-12.4,12.9c0.5-6,0.6-12-0.3-17.7
				C428.2,229.3,432.4,230.8,436.6,232.4z M408,228.4c2.6-0.3,5.1-0.6,7.7-0.9c-1.2,7.6-0.5,15.7,0.1,23.6c-2.8,1.7-5.7,3.2-8.7,4.5
				C409.6,246.5,411,236,408,228.4z M387.3,230.8c4.4-0.7,8.7-1,13.1-1.5c-1.6,4.6-1,9.1-0.9,14.1c0,5.3-0.6,10.6-1.6,15.8
				c0,0-0.1,0-0.1,0.1c-2.1,0.7-4.1,1.1-6.1,1.4c0-0.9-0.3-1.7-1.3-2.3c-10.8-5.6-3.6-15.2-1.5-23.4
				C389.4,233.1,388.6,231.6,387.3,230.8z M381.7,231.8c-4.9,4.6-7.4,12.3-6.4,18.9c0.7,5.2,3.2,8.3,6.9,10.5
				c-12.3-1.2-20.2-10-23.2-24.7C366.3,234.5,374,233,381.7,231.8z M277.4,205.9c18.8,5.4,35.8,15.4,53.3,24.2
				c-20.4,9-37.4,23.4-49.3,44.2C278.3,251.3,276.9,228.9,277.4,205.9z M395.9,634c-33.6,0.1-56.6-37.4-50.6-67.8
				c6.9-35.1,43.8-47.4,74.7-38.5c-1.8,3.6-1.5,8.2,3.2,10.8C469.9,564,447.1,633.8,395.9,634z M383.5,484.3
				c0.4-6.8,2.8-15.2,2.4-22.5c1,0.1,2,0.3,3,0.3c0.9,0,1.8-0.1,2.6,0c-0.3,6.1,0.1,12.4,0.2,18.5c0.2,9.7,0.3,19.5,0.7,29.2
				c-5.7-0.1-11.3,0.4-16.7,1.8c-2.1-8.4-3.7-16.8-3.8-25.5c0-2.8,0.4-5.2,1-7.4c0,0.8,0,1.8,0,2.5c0,9.6,1.4,19.5,6.1,27.9
				c1.1,2,4.5,1.2,4.4-1.2C383,500.1,383.1,492.1,383.5,484.3z M401.7,462c5.1-0.1,10.2-0.5,15.2-1c-4.9,15.4-1.9,35.7-1.3,50.8
				c0,1.2,0.6,2,1.2,2.6c0,0.1-0.1,0.1-0.1,0.2c-5.2-2.1-10.6-3.4-16-4.1c0.5-9.9,0.6-19.9,0.7-29.8
				C401.6,474.4,402,468.2,401.7,462z M424.3,505.3c0.3-6.3,0.5-12.6,1-18.8c0.7-9,3.3-18.2,3.4-27.2c0.1,0,0.1,0,0.2,0
				c0.1,0.3,0.2,0.7,0.4,1C437.2,475.4,433.3,492,424.3,505.3z M400.7,446.3c-71.3,3.5-129.1-66.7-117.6-134.3
				c7.1-41.9,33.8-62.1,66.4-72.8c-1.9,24.5,14.6,40.8,40.7,39.5c25.4-1.3,50.6-17.2,64-39c40.9,18,73.6,42.8,77.7,95.7
				c0.7,8.7-0.2,16.9-2.2,24.7c-3.2,1.3-4,5.4-2.7,8.1C509,415.2,446.2,444,400.7,446.3z M572.5,406.3c0.3,11.2,0.8,22.3,1.3,33.4
				c-6.7,1.1-13.6,1.8-20.5,1.7c5.1-20.4,11.6-46.6,6.5-66.1c-1.3-4.9-8.4-4.8-9.8,0c-3.1,10.7-2.3,22.3-3.4,33.4
				c-1,10.7-2.5,21.4-3.7,32.1c-10-0.9-19.9-2.9-29-6c0.9-0.8,1.4-1.8,1.4-3.1c0.8-4.4,1.7-8.8,2.8-13.2c1.1-4.6,3.3-9.8,3.9-14.7
				c8.2-10.3,15-21.6,19.9-34.1c11.2-1,22.1-1,32.9-0.2c-0.5,0.5-1.1,1-1.4,1.9C569.5,381.5,572.2,395.8,572.5,406.3z M594.4,433.9
				c-3.9,1.6-7.9,3.1-12.2,4.1c0.5-10.6,0.9-21.2,1.2-31.8c0.3-10.5,3.1-24.7-0.7-34.7c-0.2-0.5-0.6-0.8-0.9-1.2
				c4.6,0.5,9.1,1.2,13.6,2.1c-0.1,8.6,1.5,17.9,1.2,26.1C596.5,410.4,595.6,422.2,594.4,433.9z M634,385.6
				c-3.4,20.8-15.1,35-30.6,44c1.8-10.3,3.4-20.6,4.5-31c0.7-6.3,2-14.9,1.5-22.8c8.5,2.4,16.8,5.5,24.9,9.3
				C634.1,385.3,634,385.4,634,385.6z M702.6,455.9c0.5-0.1,1.1-0.2,1.6-0.2c8.4,22,9.8,45.7,8.1,70.9c-5.9-4.1-12.7-7-20.2-8.7
				c3.1-11.5,5.5-23.1,7-35C700.3,474.1,702,464.9,702.6,455.9z M668.7,474.3c0.1,1.5,0.3,3,0.4,4.5c0.6,9,2,17.9,4.3,26.6
				c1.7,6.4,11.1,3.7,9.8-2.7c-1.6-7.9-2.3-15.8-2.6-23.9c-0.2-5,0.2-10.3,0.1-15.5c2.6-1.7,5.5-3.1,8.5-4.2
				c-0.3,4-0.6,8.1-0.9,12.2c-1.2,15.1-2.6,30.2-5.5,45.1c-1.5-0.1-2.9-0.4-4.5-0.4c-1.2,0-2.3,0.2-3.2,0.6
				c-3.6-0.2-7.1-0.1-10.4,0.3c0.1-0.8,0.1-1.7-0.2-2.7C658.9,499.2,661.2,485,668.7,474.3z M684.8,654.3
				c-71.8,8.7-73.1-108.1-13.4-129.6c0.6,3.1,2.9,5.9,6.9,6.1c13.3,0.8,24,6.6,32.2,14.9c0,0.3-0.1,0.5-0.1,0.8
				c-0.4,3.7,2.8,6,6,6.3C740.4,586.7,731.6,648.6,684.8,654.3z M728.8,476.2c-5.9-24.3-18.3-47.4-33.6-66.3c0.5-0.3,1-0.8,1.2-1.6
				c6.5-21.5,41.5,3.7,49,10.9c7.5,7.2,14.2,17.7,12.5,28.4C755.7,461.9,741.1,470.2,728.8,476.2z"/>
			<path d="M442.3,371.8c-11.6,16.3-26.4,17.1-31.4-2.3c0.5-0.7,1-1.4,1.3-2.2c0.9-2.6,0.8-4.9-0.3-7.4c-0.8-1.9-0.3-2.4,0.9-5.2
				c3.2-6.8-0.6-14.5-8.5-14.8c-6.6-0.3-12.6-3.1-19.3-3.1c-5.4,0-11,5.9-8.8,11.5c2.9,7.3,7.4,14.8,15.2,17.3
				c-0.2,0.3-0.4,0.5-0.5,0.8c-11.9,29.8-43.5,34.3-63.8,10.3c-4.3-5.1-11.1,1.4-8.6,6.7c17.2,36.2,57,31.1,79.5,6.9
				c14.4,21.7,44.6,18.6,61-8.7C465.7,370.7,449.4,361.8,442.3,371.8z"/>
			<path d="M358.9,303.2c-5.1-8.5-14.2-14.7-23.9-16.6c-24.8-5-40.6,19.5-34.2,41.9c1.8,6.4,12.9,7.5,14,0
				c1.5-10.1,3.2-24.6,16-22.1c4.3,0.8,8.1,3.4,10.5,7c4,5.8,1.3,14.2,7.1,18.8c3,2.3,6.2,3.1,9.7,1.2
				C369,327.7,363.8,311.3,358.9,303.2z"/>
			<path d="M460.1,292.8c-8-0.5-15.6,3.8-20.2,10.2c-6.2,8.6-5.5,19.2-2.6,29c1.5,5.1,10.4,6.1,11.3,0c0.9-6.2,2.2-12.4,5.5-17.7
				c1.6-2.6,4.5-2.4,7.2-2.3c9.3,0.6,11.9,11.1,16.2,17.6c5.2,7.9,15.4,4,16.5-4.5C496.3,307.9,474.9,293.7,460.1,292.8z"/>
			<path d="M607.4,517.2c-16.1-33.7-69-37.2-91.9-9.4c-1.3,0.7-2.5,1.6-3.8,2.7c-8.6,7.4-11.2,19.7-10.8,30.6
				c1,27.2,22.5,51.6,50.8,49.6C587.5,588.2,624.9,553.9,607.4,517.2z M520.1,524c1.4,0.1,2.9-0.2,4.3-1c1.1-0.6,2-1.3,3.1-1.9
				c-2,7.5-0.6,16.2-0.2,23.7c0.4,6.3,1.2,12.7,2.3,18.9C519.1,553.5,515.1,535.5,520.1,524z M549.5,541.1c0,10.1-0.5,20.3-1.2,30.4
				c-3.3,0-6.3-0.6-9.2-1.6c-1.6-9.4-2.1-18.9-2.3-28.5c-0.1-7.8,1.4-16.5-1.9-23.8c-0.1-0.3-0.4-0.4-0.6-0.6c1.7-1,3.4-2.1,5.1-3
				c1.1,0.1,2,0.1,3.2,0.3c2.4,0.5,3.5-1.5,3-3.2c1.5-0.6,3.2-0.9,4.8-1.3C548.5,520,549.5,530.7,549.5,541.1z M559.2,508.7
				c1.1,0,2.1-0.2,3.4-0.1c4.7,0.3,9.3,2,13.4,4.4c-0.3,7.7,0.2,15.5,0.1,23.2c0,8.7-0.5,17.4-0.9,26.1c-5.7,3.7-12,6.4-17.9,8
				C560.7,549.9,563.4,527.4,559.2,508.7z M585.8,553.4c1.6-9.6,2.5-19.6,2.5-29.3c0.3,0.4,0.7,0.8,1,1.2
				C595.7,535.6,592.7,545.4,585.8,553.4z"/>
		</g>
	</g>
	<text transform="matrix(1 0 0 1 303.4003 836.8463)" class="st1 st2">ねこ</text>
</g>
</svg>
